<?xml version="1.0" standalone="no"?>
<!DOCTYPE svg PUBLIC "-//W3C//DTD SVG 1.1//EN" "http://www.w3.org/Graphics/SVG/1.1/DTD/svg11.dtd" >
<svg xmlns="http://www.w3.org/2000/svg">
<metadata>Generated by IcoMoon</metadata>
<defs>
<font id="parIconFont" horiz-adv-x="1024">
<font-face units-per-em="1024" ascent="960" descent="-64" />
<missing-glyph horiz-adv-x="1024" />
<glyph unicode="&#x20;" horiz-adv-x="512" d="" />
<glyph unicode="&#xe600;" glyph-name="pinterest-p" horiz-adv-x="731" d="M0 609.714q0 61.714 21.429 116.286t59.143 95.143 86.857 70.286 105.714 44.571 115.429 14.857q90.286 0 168-38t126.286-110.571 48.571-164q0-54.857-10.857-107.429t-34.286-101.143-57.143-85.429-82.857-58.857-108-22q-38.857 0-77.143 18.286t-54.857 50.286q-5.714-22.286-16-64.286t-13.429-54.286-11.714-40.571-14.857-40.571-18.286-35.714-26.286-44.286-35.429-49.429l-8-2.857-5.143 5.714q-8.571 89.714-8.571 107.429 0 52.571 12.286 118t38 164.286 29.714 116q-18.286 37.143-18.286 96.571 0 47.429 29.714 89.143t75.429 41.714q34.857 0 54.286-23.143t19.429-58.571q0-37.714-25.143-109.143t-25.143-106.857q0-36 25.714-59.714t62.286-23.714q31.429 0 58.286 14.286t44.857 38.857 32 54.286 21.714 63.143 11.429 63.429 3.714 56.857q0 98.857-62.571 154t-163.143 55.143q-114.286 0-190.857-74t-76.571-187.714q0-25.143 7.143-48.571t15.429-37.143 15.429-26 7.143-17.429q0-16-8.571-41.714t-21.143-25.714q-1.143 0-9.714 1.714-29.143 8.571-51.714 32t-34.857 54-18.571 61.714-6.286 60.857z" />
<glyph unicode="&#xe601;" glyph-name="parents_logo" horiz-adv-x="4230" d="M2850.338 454.874h3.173c41.285 80.434 143.007 129.239 251.017 129.239 146.161 0 219.231-66.059 219.231-218.291v-369.407h70.387v-47.062h-378.611v47.062h92.166v421.11c0 97.649-47.669 103.623-95.338 103.623-85.781 0-162.024-103.407-162.024-175.205v-349.528h92.146v-47.062h-389.618v47.062h81.374v523.401h-81.374v47.062h87.739c63.533 0 177.927 0 209.713 37.348v-149.353zM3927.574 361.847c-129.298 18.782-146.161 19.996-146.161 86.173 0 66.059 60.38 99.197 143.007 99.197 117.547 0 181.1-76.224 219.231-168.135h25.441l-9.538 201.057h-22.268c0-17.235-19.075-31.59-47.669-31.59-50.822 0-92.126 31.59-162.044 31.59-155.698 0-231.961-117.763-231.961-206.795 0-183.842 152.526-198.178 270.093-212.572 109.635-12.906 158.871-22.973 158.871-86.153 0-74.676-66.725-113.552-149.333-113.552-120.759 0-216.078 102.075-244.672 205.463h-28.339v-154.406c0-8.284-4.661-15.433-11.535-19.33-0.098-0.039-3.036-1.469-4.211-1.861-8.226-3.427-15.903-5.014-25.499-5.014-38.112 0-57.187 22.992-57.187 71.817v476.79h108.499v61.222h-108.499v215.255l-62.025-0.098c0 0-5.327-65.139-30.474-111.829-31.159-57.892-59.557-73.521-89.796-86.604-35.331-9.557-30.924-16.706-116.392-16.706v-61.222h98.276v-448.078c0-132.118 111.437-157.97 155.933-157.97 59.577 0 108.127 12.75 142.89 38.895l24.246 19.017c23.365 20.27 39.169-3.662 67.646-16.725 36.819-16.902 95.338-41.559 181.139-41.559 146.161 0 241.499 114.884 241.499 229.787 0.020 172.326-127.124 180.963-289.168 203.935zM2558.428 174.010c-34.959-132.118-123.932-205.463-244.672-205.463-146.161 0-146.415 102.056-146.415 196.865v117.743h428.964c-3.173 152.212-158.871 295.846-320.934 295.846-96.905 0-189.071-41.637-251.017-109.146-2.977-3.075-5.797-6.228-8.578-9.401 1.449 4.387 2.761 8.97 3.819 13.827v11.496c0 66.059-54.015 106.267-127.105 106.267-98.511 0-171.582-46.161-200.195-115.099l-3.173 7.070v119.486c-31.786-37.328-149.353-37.328-212.905-37.328h-84.528v-47.062h84.547v-31.708c0-0.059 0.020-0.118 0.020-0.176v0c0 0.059-0.020 0.118-0.020 0.176v-463.844l-0.157-0.059c-0.94-11.614-10.85-20.76-23.090-20.76h-50.215c-11.986 0-21.759 8.794-23.032 20.074l-0.059 0.059v0.705c-0.039 0.548-0.176 1.077-0.176 1.645v17.137l-0.176 19.506v330.453c0 157.951-161.75 197.414-321.209 200.351-44.477 0.823-94.986-0.509-137.7-13.944-34.959-11.496-61.026-24.246-80.63-37.309 23.795 40.462 35.507 86.212 34.449 134.292-3.545 165.804-80.297 270.915-350.39 270.915h-523.852v-60.517h126.184v-882.604h-126.184v-54.152h497.295v54.152h-129.612v382.646c44.477-2.859 48.139-4.309 118.037-2.859 134.39-0.823 235.721 36.134 301.213 94.496-2.899-9.518-3.76-18.292-3.76-25.754 0-30.239 29.886-136.466 154.425-92.322 77.673 27.536 49.843 141.656-31.159 160.751-6.15 1.449-10.654 46.161 131.609 46.161 50.568 0 122.933-3.956 127.242-85.448l5.288-167.606c-45.769-6.365-147.12-13.141-147.12-13.141-142.988-11.477-295.514-45.965-295.514-192.439 0-120.642 120.759-169.447 241.499-169.447 73.090 0 162.063 20.094 203.368 86.173 28.594-60.321 49.51-75.146 137.054-75.146 32.080 0 102.918-0.215 102.918-0.215l373.519 0.255-0.059 53.192h-93.928v327.848c0 109.146 47.669 198.197 133.45 224.049l3.192-2.859c-28.594-25.871-34.959-45.946-34.959-80.415 0-54.563 47.669-91.911 114.394-91.911 0 0 37.583 1.626 69.78 26.733-7.246-12.965-11.124-21.759-11.124-21.759-20.662-41.657-31.649-88.366-31.649-138.64 0-180.963 146.161-315.94 343.163-315.94 206.54 0 289.168 106.267 324.127 244.143h-44.261zM2167.341 429.63c0 86.173 44.496 123.501 98.491 123.501 73.071 0 116.764-45.946 116.764-123.501v-99.412h-215.255v99.412zM403.092 423.265c-25.401 0-27.556 0.705-35.429 5.738v471.247h92.616c168.409 0 192.361-54.759 192.361-232.842 0.020-163.728-65.256-244.143-249.548-244.143zM1169.618 122.346c0-74.696-41.304-133.685-114.394-133.685-104.856 0-108.049 79.103-108.049 150.9 0 77.555 9.538 117.88 108.049 127.927l114.394 7.991v-153.133z" />
<glyph unicode="&#xe602;" glyph-name="delete" d="M256 128c0-47.147 38.187-85.333 85.333-85.333h341.333c47.147 0 85.333 38.187 85.333 85.333v512h-512v-512zM810.667 768h-149.333l-42.667 42.667h-213.333l-42.667-42.667h-149.333v-85.333h597.333v85.333z" />
<glyph unicode="&#xe603;" glyph-name="info" d="M512 853.334c-235.733 0-426.667-190.933-426.667-426.667s190.933-426.667 426.667-426.667 426.667 190.933 426.667 426.667-190.933 426.667-426.667 426.667zM554.667 213.334h-85.333v256h85.333v-256zM554.667 554.667h-85.333v85.333h85.333v-85.333z" />
<glyph unicode="&#xe604;" glyph-name="flag" d="M614.4 682.667l-17.067 85.333h-384v-725.333h85.333v298.667h238.933l17.067-85.333h298.667v426.667z" />
<glyph unicode="&#xe605;" glyph-name="logo_american_baby_gray" horiz-adv-x="3261" d="M304.735 954.304h-299.047v-114.438h92.348v-606.080h-92.348v-93.615h286.061v90.385c64.269-90.915 174.010-104.966 257.938-104.727 186.876 0.518 262.851 91.753 275.284 110.371 49.735 74.49 59.447 146.042 59.447 207.383 0 151.162-93.247 293.562-334.134 293.562-113.458 0-194.266-27.386-245.549-100.777v317.935zM483.003 632.983c155.41 0 181.832-124.87 181.832-209.21 0-84.346-24.867-204.835-178.724-204.835-158.525 0-188.055 125.969-188.055 212.497 0 42.729 7.777 86.534 32.644 125.969 26.41 40.535 85.476 75.578 152.302 75.578v0 0zM1374.088 140.073l290.326-0.18-0.057 90.566h-107.241l0.575 256.844c0 25.199-1.554 49.292-6.211 74.484-4.663 23.005-7.771 35.055-20.205 54.772-55.952 89.821-177.169 113.914-306.164 113.914-181.832 0-332.58-50.385-337.243-194.839h205.145c-2.306 66.612 41.685 103.331 131.824 104.087 119.635 1.007 134.625-70.336 132.985-150.4-0.028-1.425-0.393-2.81-0.609-4.207-37.301 1.094-74.597 4.375-111.898 4.375-38.855 0-81.093-3.2-119.942-4.294-54.398-1.094-148.977-22.487-189.381-48.774-52.843-32.867-79.208-84.94-79.208-134.237 0-17.519 1.554-37.236 18.651-75.572 18.651-60.247 130.549-106.257 245.549-106.257 111.898 0 206.483 30.284 253.104 103.68v-83.962zM1356.394 402.956c-4.663-85.428-40.41-187.305-191.157-187.305-66.826 0-108.79 36.154-108.79 81.059 0 88.727 96.356 106.246 202.037 106.246h97.91zM1858.793 954.647h-322.714v-122.537h107.799v-601.804h-79.214v-90.42h280.146v84.864c65.271-90.921 175.615-104.401 259.537-104.401 178.718 0 259.537 92.020 271.965 110.639 49.735 74.484 62.169 144.599 62.169 205.935 0 151.156-93.253 293.556-334.134 293.556-113.452 0-194.266-22.359-245.555-95.75v319.919zM2030.856 632.983c155.41 0 181.832-124.87 181.832-209.21 0-84.346-24.867-204.835-178.724-204.835-158.519 0-188.055 125.969-188.055 212.497 0 42.729 7.777 86.534 32.644 125.969 26.41 40.535 85.471 75.578 152.302 75.578v0 0zM2360.060 712.937l392.289-0.128v-89.681h-99.020l158.513-307.793 2.277-3.206 153.042 310.999h-93.099v93.114h359.622v-93.114h-57.125l-295.011-526.697c-51.568-90.915-97.728-154.676-255.433-154.612-41.964 0.012-83.916 0-122.612 5.475v100.777c26.257-1.105 54.028 0.896 82.003 0.896 74.602 0 89.177 14.086 111.408 60.707l9.701 17.873-280.232 495.581-66.439 0.151 0.114 89.658zM472.294 762.188h42.545v19.788h-13.202v60.753c0 5.411-0.256 10.589-1.025 16.006-0.763 4.945-1.275 7.54-3.313 11.776-9.189 19.299-29.086 24.489-50.264 24.489-29.849 0-54.603-10.833-55.365-41.443h33.675c-0.25 13.184 6.894 22.604 21.691 22.604 21.178 0 23.473-18.048 21.691-33.111-6.126 0.233-12.252 0.145-18.372 0.145-6.382 0-13.271-0.943-19.653-1.175-8.927-0.233-24.236-5.184-30.868-10.828-8.676-7.075-13.271-17.664-13.271-28.265 0-3.764 0.649-7.872 3.063-16.244 4.327-15.005 21.036-24.756 39.914-24.756 18.372 0 35.098 8.977 42.755 24.756v-24.495zM469.744 824.593c-0.769-18.368-6.638-40.262-31.386-40.262-10.971 0-17.859 7.773-17.859 17.42 0 19.072 15.821 22.842 33.168 22.842h16.077zM571.184 872.111c8.682 16.593 22.966 24.396 42.613 24.396 18.115 0 31.38-6.586 37.757-24.396 7.401 16.593 21.941 24.396 39.55 24.396 19.391 0 38.867-8.547 45.499-24.396 3.313-8.058 2.294-13.917 2.294-20.253v-69.533h12.531v-20.259h-69.331v20.259h17.17v59.77c0 13.172-1.782 28.073-20.154 28.073-9.952 0-14.722-4.399-19.061-13.178-4.338-8.541-4.338-13.434-4.338-22.703v-52.154h12.753v-19.561h-63.928v19.561l13.441-0.483v62.156c1.429 7.808-0.575 12.311-2.363 17.332-1.924 5.417-9.189 8.547-15.058 8.547-14.284 0-21.941-8.297-25.767-20.492-1.788-6.348-1.309-9.542-1.309-16.128v-50.932h12.388v-19.561h-64.184v19.799h13.589v90.223h-13.589v20.742h49.496v-21.225zM875.264 821.824c0 2.944 0.256 3.427 0.256 4.16 0.501 3.654 0.011 1.088-0.245 4.992-0.769 14.639-4.099 35.293-15.064 46.511-12.508 12.689-29.598 17.327-47.714 17.327-41.076 0-63.285-32.279-63.285-67.91 0-16.349 5.107-28.492 15.827-41.67 5.864-7.558 11.739-12.445 20.666-16.349 7.908-3.415 19.647-6.092 28.318-6.092 27.56 0 57.153 13.905 57.068 39.098h-32.405c0.091-9.094-9.348-17.879-22.875-17.879-23.216 0-31.38 21.475-31.124 37.812h90.577zM785.449 836.998c1.531 17.076 8.42 35.625 29.855 35.625 19.391 0 25.511-20.98 25.767-35.625h-55.622zM927.441 864.18c5.357 22.697 21.429 31.959 45.158 29.766v-31.715c-3.82 0.972-7.908 1.949-11.99 1.949-12.496 0-23.473-7.325-27.811-18.298-3.319-8.785-3.319-20.748-3.319-29.766v-33.431h23.114v-20.736h-75.855v20.736h18.81v88.332h-17.859v22.673h49.752v-29.51zM1000.119 942.679h33.931v-29.655h-33.931v29.655zM981.639 762.316v20.742h18.11v88.337h-18.11v22.191h52.046v-110.528h17.723v-20.742h-69.769zM1141.274 844.457c-0.507 15.127-7.395 28.393-25.517 28.393-27.042 0-30.356-27.66-30.356-47.424 0-18.787 6.883-42.31 30.868-42.31 14.796 0 22.96 11.078 24.241 20.783h29.337c-1.526-28.742-25.033-41.967-56.669-41.967-43.626 0-66.114 29.911-65.642 71.523 0.194 16.593 6.223 29.789 17.449 44.672 7.145 10.001 21.173 18.304 40.569 18.304 16.077 0 30.105-1.181 36.083-16.308v14.592h27.446v-50.257h-27.811zM1265.447 761.949h45.067v20.119h-18.81v60.189c0 5.609-0.256 10.979-1.019 16.593-0.763 5.126-1.281 7.808-3.319 12.195-9.183 20.009-30.037 25.385-51.215 25.385-29.849 0-54.603-11.229-55.36-42.95h33.675c-0.256 13.667 6.889 23.43 21.685 23.43 21.178 0 23.473-19.52 21.691-35.142-6.126 0.25-12.246 0.977-18.377 0.977-6.376 0-13.265-0.977-19.641-1.216-8.927-0.25-24.236-5.376-30.874-11.229-8.671-7.319-13.265-18.298-13.265-29.283 0-3.898 0.25-5.382 3.063-13.923 3.057-13.417 21.537-25.164 40.415-25.164 18.372 0 34.597 5.021 46.285 21.376v-21.359zM1258.86 823.471c-0.763-19.037-6.632-41.728-31.38-41.728-10.976 0-17.865 8.058-17.865 18.060 0 19.764 15.821 23.668 33.174 23.668h16.072zM1367.205 872.023c8.671 16.593 21.685 24.401 40.82 24.401 20.922 0 38.167-12.439 41.224-24.401 1.788-6.831 1.788-11.956 2.146-17.565l-0.905-72.337h18.844v-19.613h-70.39v19.613h13.453l0.905 60.381c0 6.342 0.256 11.468-1.782 17.809-2.294 7.808-6.809 13.667-15.741 13.667-24.754 0-26.285-22.208-26.285-40.262v-51.782h17.865v-20.364h-70.128v20.364h18.332v89.123h-18.229v23.651h49.872v-22.685zM3199.759 606.377c0-5.888-4.634-10.56-10.521-10.56s-10.583 4.672-10.583 10.56c0 5.888 4.697 10.496 10.646 10.496 5.824 0 10.458-4.608 10.458-10.496v0 0zM3181.285 606.377c0-4.672 3.444-8.384 8.016-8.384 4.446-0.064 7.828 3.712 7.828 8.32 0 4.672-3.382 8.448-7.948 8.448-4.452 0-7.896-3.776-7.896-8.384v0 0zM3187.61 600.937h-2.38v10.496c0.939 0.128 2.254 0.32 3.951 0.32 1.936 0 2.812-0.32 3.501-0.832 0.626-0.448 1.065-1.216 1.065-2.24 0-1.28-0.939-2.112-2.129-2.496v-0.128c1.002-0.32 1.503-1.152 1.822-2.56 0.307-1.6 0.558-2.176 0.746-2.56h-2.505c-0.313 0.384-0.501 1.28-0.814 2.56-0.188 1.088-0.814 1.6-2.129 1.6h-1.127v-4.16zM3187.673 606.825h1.127c1.321 0 2.38 0.448 2.38 1.536 0 0.96-0.689 1.6-2.192 1.6-0.626 0-1.065-0.064-1.315-0.128v-3.008z" />
<glyph unicode="&#xe606;" glyph-name="error" d="M512 853.334c-235.52 0-426.667-190.933-426.667-426.667s191.147-426.667 426.667-426.667 426.667 190.933 426.667 426.667-191.147 426.667-426.667 426.667zM554.667 213.334h-85.333v85.333h85.333v-85.333zM554.667 384h-85.333v256h85.333v-256z" />
<glyph unicode="&#xe607;" glyph-name="save" d="M725.333 810.667h-512c-47.147 0-85.333-38.187-85.333-85.333v-597.333c0-47.147 38.187-85.333 85.333-85.333h597.333c47.147 0 85.333 38.187 85.333 85.333v512l-170.667 170.667zM512 128c-70.613 0-128 57.387-128 128s57.387 128 128 128 128-57.387 128-128-57.387-128-128-128zM640 554.667h-426.667v170.667h426.667v-170.667z" />
<glyph unicode="&#xe608;" glyph-name="arrow-drop-down" d="M298.667 512l213.333-213.333 213.333 213.333z" />
<glyph unicode="&#xe609;" glyph-name="comment" d="M938.24 768c0 47.147-37.76 85.333-84.907 85.333h-682.667c-47.147 0-85.333-38.187-85.333-85.333v-512c0-47.147 38.187-85.333 85.333-85.333h597.333l170.667-170.667-0.427 768zM768 341.334h-512v85.333h512v-85.333zM768 469.334h-512v85.333h512v-85.333zM768 597.334h-512v85.333h512v-85.333z" />
<glyph unicode="&#xe60a;" glyph-name="logo_shop" horiz-adv-x="1598" d="M330.564 296.072c0-41.501-46.134-65.71-124.56-65.71-117.639 0-201.834 42.659-201.834 104.913 0 33.431 28.835 64.558 59.975 64.558 13.842 0 23.067-6.918 23.067-18.443 0-6.918-3.457-11.532-12.689-19.602-9.225-8.070-12.689-12.684-12.689-23.057 0-36.893 47.286-61.102 117.639-61.102 43.829 0 70.353 10.373 70.353 28.823 0 11.525-5.762 17.291-39.213 44.956-110.719 92.229-143.011 133.737-143.011 185.61 0 29.975 11.53 54.184 38.061 78.394 54.207 48.418 131.481 78.394 202.986 78.394s118.792-41.501 118.792-103.755c0-31.127-12.689-78.394-33.445-123.356-16.146-32.279-32.292-46.115-53.055-46.115-16.146 0-31.14 10.373-31.14 23.057 0 5.766 2.305 10.38 12.689 21.905 26.524 32.279 42.677 76.090 42.677 116.439s-21.915 64.558-57.664 64.558c-49.598 0-103.805-20.754-144.17-54.184-17.299-14.988-27.676-33.431-27.676-49.57 0-26.513 26.524-63.406 78.426-109.521l83.042-74.931c21.901-18.45 33.438-40.355 33.438-62.261v0 0zM759.617 679.977c34.604 0 59.975-31.127 59.975-71.476 0-36.893-14.994-88.767-51.902-176.389-39.22-93.381-47.293-116.439-47.293-133.73 0-12.684 10.384-23.057 24.219-23.057 14.994 0 35.756 8.070 70.346 29.975 16.146 10.373 27.69 17.291 35.763 21.905 3.457 2.304 8.073 4.607 11.53 6.918 3.47 1.152 6.921 1.152 10.378 1.152 9.225 0 17.299-6.918 17.299-16.139s-5.755-20.754-18.451-31.127c-43.822-39.197-111.871-69.172-158.005-69.172-39.213 0-64.585 21.905-64.585 56.488 0 28.823 11.53 58.799 61.128 170.63 34.597 76.090 48.432 115.287 48.432 140.648 0 20.754-9.225 34.589-23.060 34.589-17.299 0-40.365-13.836-74.969-43.811-44.975-38.045-87.652-83.008-113.023-118.742-23.067-32.279-51.902-88.774-74.969-144.11l-13.842-31.127c-16.146-40.349-25.372-50.722-46.134-50.722-18.451 0-31.14 14.988-31.14 35.735 0 5.766 1.152 10.373 2.305 14.988 3.464 13.836 9.225 27.671 16.146 42.659 9.225 20.754 29.988 68.020 63.432 139.496 44.982 99.147 85.347 192.528 121.103 277.84l39.213 97.989c12.696 31.127 20.769 51.881 25.378 64.565 13.835 35.735 27.676 48.418 54.207 48.418 19.61 0 32.292-12.684 32.292-29.975 0-4.607-1.159-12.684-3.464-18.443-5.762-14.988-10.384-25.361-39.22-77.242-19.603-36.893-47.286-93.381-81.883-171.775-23.067-51.881-35.756-81.849-47.286-104.913l-9.225-20.754c86.513 99.14 155.714 148.711 205.304 148.711v0 0zM813.818 373.314c0 153.332 124.56 302.056 253.736 302.056 56.518 0 106.109-40.349 123.408-96.843 4.609-14.988 6.921-24.209 8.073-25.361 1.152-3.462 3.457-8.070 6.921-13.836 4.609-6.918 8.073-11.525 9.225-12.684 2.305-5.766 4.609-12.684 4.609-17.298 0-8.070-2.305-13.829-11.53-25.361-4.616-4.607-8.073-9.222-10.378-12.684-2.318-4.607-4.616-9.222-5.768-14.988-1.152-3.462-2.305-10.373-4.616-21.905-19.603-110.672-132.633-212.13-235.272-212.13-83.056 0.007-138.408 61.109-138.408 151.035v0 0zM1120.602 509.354c0 3.462 1.152 6.918 3.47 12.684 5.755 9.222 6.907 10.373 6.907 14.988 0 43.811-32.292 85.311-66.889 85.311-31.14 0-73.817-24.209-108.414-62.254-48.439-54.184-77.267-125.66-77.267-194.832 0-55.336 26.524-92.229 69.194-92.229 36.915 0 79.585 23.057 115.335 61.102 39.22 42.659 65.737 95.692 65.737 137.192 0 4.607-1.152 9.222-2.305 12.684l-4.616 16.139c-1.152 3.449-1.152 5.753-1.152 9.215v0 0zM1211.717 278.781l-39.22-103.761-27.676-89.919c-9.225-32.279-12.682-43.811-12.682-54.191 0-6.911 1.152-14.981 5.755-28.817 2.318-10.38 3.47-13.836 3.47-19.608 0-20.747-16.146-35.735-40.365-35.735-28.842 0-49.591 21.905-49.591 51.874 0 12.691 2.305 23.057 10.378 46.121 4.616 12.684 12.682 34.583 23.067 64.565 66.889 190.218 114.182 320.492 160.31 442.697 20.769 55.336 33.445 84.16 48.439 111.831 11.544 21.905 26.524 31.127 49.591 31.127 18.464 0 28.842-9.222 28.842-23.057 0-5.766 0-8.070-4.616-19.602-2.305-5.766-6.921-18.443-12.682-39.197 0-1.152-1.152-3.462-2.318-6.918 50.757 44.963 92.274 64.558 136.097 64.558 54.214 0 89.963-59.95 89.963-152.18 0-157.939-106.109-297.442-227.212-297.442-47.293 0-96.884 23.057-137.236 63.406l-2.311-5.753zM1351.271 268.407c39.22 0 81.89 28.823 108.414 73.786 33.458 56.488 56.518 134.888 56.518 192.528 0 44.963-21.908 73.786-54.2 73.786-28.842 0-59.982-16.139-95.731-49.57-56.518-51.881-83.042-95.692-124.56-207.516l-3.47-6.918c41.531-49.584 80.738-76.097 113.030-76.097v0 0z" />
<glyph unicode="&#xe60b;" glyph-name="share" d="M768 252.374c-32.427 0-61.653-12.587-83.84-32.853l-304 177.28c2.347 9.6 3.84 19.627 3.84 29.867s-1.493 20.267-3.84 29.867l300.8 175.573c22.827-21.333 53.333-34.56 87.040-34.56 70.613 0 128 57.387 128 128s-57.387 128-128 128-128-57.387-128-128c0-10.24 1.493-20.267 3.84-29.867l-300.8-175.573c-22.827 21.333-53.333 34.56-87.040 34.56-70.613 0-128-57.387-128-128s57.387-128 128-128c33.707 0 64.213 13.227 87.040 34.56l304-177.28c-2.133-8.96-3.413-18.347-3.413-27.947 0-68.693 55.68-124.373 124.373-124.373s124.373 55.68 124.373 124.373-55.68 124.373-124.373 124.373z" />
<glyph unicode="&#xe60c;" glyph-name="slideshow" d="M85.333 618.667v-512c0-47.147 38.187-85.333 85.333-85.333h512c47.147 0 85.333 38.187 85.333 85.333v512c0 47.147-38.187 85.333-85.333 85.333h-512c-47.147 0-85.333-38.187-85.333-85.333zM938.667 192v597.333c0 47.147-38.187 85.333-85.333 85.333h-597.333v-85.333h597.333v-597.333h85.333z" />
<glyph unicode="&#xe60d;" glyph-name="phone" d="M661.333 896h-341.333c-58.88 0-106.667-47.787-106.667-106.667v-725.333c0-58.88 47.787-106.667 106.667-106.667h341.333c58.88 0 106.667 47.787 106.667 106.667v725.333c0 58.88-47.787 106.667-106.667 106.667zM490.667-0c-35.413 0-64 28.587-64 64s28.587 64 64 64 64-28.587 64-64-28.587-64-64-64zM682.667 170.667h-384v597.333h384v-597.333z" />
<glyph unicode="&#xe60e;" glyph-name="tablet" d="M789.333 938.667h-597.333c-58.88 0-106.667-47.787-106.667-106.667v-810.667c0-58.88 47.787-106.667 106.667-106.667h597.333c58.88 0 106.667 47.787 106.667 106.667v810.667c0 58.88-47.787 106.667-106.667 106.667zM490.667-42.666c-35.413 0-64 28.587-64 64s28.587 64 64 64 64-28.587 64-64-28.587-64-64-64zM810.667 128h-640v682.667h640v-682.667z" />
<glyph unicode="&#xe60f;" glyph-name="play-arrow" d="M341.333 725.334v-597.333l469.333 298.667z" />
<glyph unicode="&#xe610;" glyph-name="list" d="M128 384h85.333v85.333h-85.333v-85.333zM128 213.334h85.333v85.333h-85.333v-85.333zM128 554.667h85.333v85.333h-85.333v-85.333zM298.667 384h597.333v85.333h-597.333v-85.333zM298.667 213.334h597.333v85.333h-597.333v-85.333zM298.667 640v-85.333h597.333v85.333h-597.333z" />
<glyph unicode="&#xe611;" glyph-name="menu" d="M128 170.667h768v85.333h-768v-85.333zM128 384h768v85.333h-768v-85.333zM128 682.667v-85.333h768v85.333h-768z" />
<glyph unicode="&#xe612;" glyph-name="info-outline" d="M469.333 213.334h85.333v256h-85.333v-256zM512 853.334c-235.733 0-426.667-190.933-426.667-426.667s190.933-426.667 426.667-426.667 426.667 190.933 426.667 426.667-190.933 426.667-426.667 426.667zM512 85.334c-188.16 0-341.333 153.173-341.333 341.333s153.173 341.333 341.333 341.333 341.333-153.173 341.333-341.333-153.173-341.333-341.333-341.333zM469.333 554.667h85.333v85.333h-85.333v-85.333z" />
<glyph unicode="&#xe613;" glyph-name="close" d="M810.667 664.96l-60.373 60.373-238.293-238.293-238.293 238.293-60.373-60.373 238.293-238.293-238.293-238.293 60.373-60.373 238.293 238.293 238.293-238.293 60.373 60.373-238.293 238.293z" />
<glyph unicode="&#xe614;" glyph-name="mail" d="M853.333 768h-682.667c-47.147 0-84.907-38.187-84.907-85.333l-0.427-512c0-47.147 38.187-85.333 85.333-85.333h682.667c47.147 0 85.333 38.187 85.333 85.333v512c0 47.147-38.187 85.333-85.333 85.333zM853.333 597.334l-341.333-213.333-341.333 213.333v85.333l341.333-213.333 341.333 213.333v-85.333z" />
<glyph unicode="&#xe615;" glyph-name="user" d="M512 768c-94.293 0-170.667-76.373-170.667-170.667 0-94.080 76.373-170.667 170.667-170.667s170.667 76.587 170.667 170.667c0 94.293-76.373 170.667-170.667 170.667zM512 341.334c-113.707 0-341.333-56.96-341.333-170.667v-85.333h682.667v85.333c0 113.707-227.627 170.667-341.333 170.667z" />
<glyph unicode="&#xe616;" glyph-name="camera" d="M648.533 426.667c0-75.405-61.128-136.533-136.533-136.533s-136.533 61.128-136.533 136.533c0 75.405 61.128 136.533 136.533 136.533s136.533-61.128 136.533-136.533zM384 853.334l-78.080-85.333h-135.253c-47.147 0-85.333-38.187-85.333-85.333v-512c0-47.147 38.187-85.333 85.333-85.333h682.667c47.147 0 85.333 38.187 85.333 85.333v512c0 47.147-38.187 85.333-85.333 85.333h-135.253l-78.080 85.333h-256zM512 213.334c-117.76 0-213.333 95.573-213.333 213.333s95.573 213.333 213.333 213.333 213.333-95.573 213.333-213.333-95.573-213.333-213.333-213.333z" />
<glyph unicode="&#xe617;" glyph-name="arrow-forward" d="M512 768l-60.373-60.373 238.293-238.293h-519.253v-85.333h519.253l-238.293-238.293 60.373-60.373 341.333 341.333z" />
<glyph unicode="&#xe618;" glyph-name="arrow-back" d="M853.333 469.334h-519.253l238.293 238.293-60.373 60.373-341.333-341.333 341.333-341.333 60.373 60.373-238.293 238.293h519.253v85.333z" />
<glyph unicode="&#xe619;" glyph-name="arrow-up" d="M316.373 280.96l195.627 195.627 195.627-195.627 60.373 60.373-256 256-256-256z" />
<glyph unicode="&#xe61a;" glyph-name="arrow-right" d="M366.293 236.374l195.627 195.627-195.627 195.627 60.373 60.373 256-256-256-256z" />
<glyph unicode="&#xe61b;" glyph-name="arrow-left" d="M657.707 241.707l-195.627 195.627 195.627 195.627-60.373 60.373-256-256 256-256z" />
<glyph unicode="&#xe61c;" glyph-name="arrow-down" d="M316.373 588.374l195.627-195.627 195.627 195.627 60.373-60.373-256-256-256 256z" />
<glyph unicode="&#xe61d;" glyph-name="time" d="M511.787 853.334c-235.733 0-426.453-190.933-426.453-426.667s190.72-426.667 426.453-426.667c235.733 0 426.88 190.933 426.88 426.667s-191.147 426.667-426.88 426.667zM512 85.334c-188.587 0-341.333 152.747-341.333 341.333s152.747 341.333 341.333 341.333 341.333-152.747 341.333-341.333-152.747-341.333-341.333-341.333zM533.333 640h-64v-256l223.787-134.4 32.213 52.48-192 113.92z" />
<glyph unicode="&#xe61e;" glyph-name="print" d="M810.667 597.334h-597.333c-70.613 0-128-57.387-128-128v-256h170.667v-170.667h512v170.667h170.667v256c0 70.613-57.387 128-128 128zM682.667 128h-341.333v213.333h341.333v-213.333zM810.667 426.667c-23.68 0-42.667 18.987-42.667 42.667s18.987 42.667 42.667 42.667c23.68 0 42.667-18.987 42.667-42.667s-18.987-42.667-42.667-42.667zM768 810.667h-512v-170.667h512v170.667z" />
<glyph unicode="&#xe61f;" glyph-name="help" d="M512 853.334c-235.733 0-426.667-190.933-426.667-426.667s190.933-426.667 426.667-426.667 426.667 190.933 426.667 426.667-190.933 426.667-426.667 426.667zM554.667 128h-85.333v85.333h85.333v-85.333zM642.773 458.454l-38.187-39.253c-30.72-30.72-49.92-56.533-49.92-120.533h-85.333v21.333c0 47.147 19.2 89.813 49.92 120.747l53.12 53.76c15.36 15.36 24.96 36.693 24.96 60.16 0 47.147-38.187 85.333-85.333 85.333s-85.333-38.187-85.333-85.333h-85.333c0 94.293 76.373 170.667 170.667 170.667s170.667-76.373 170.667-170.667c0-37.547-15.147-71.467-39.893-96.213z" />
<glyph unicode="&#xe620;" glyph-name="add" d="M810.667 384h-256v-256h-85.333v256h-256v85.333h256v256h85.333v-256h256v-85.333z" />
<glyph unicode="&#xe621;" glyph-name="check" d="M384 248.747l-177.92 177.92-60.373-60.373 238.293-238.293 512 512-60.373 60.373z" />
<glyph unicode="&#xe622;" glyph-name="search" d="M661.333 341.334h-33.92l-11.733 11.733c41.813 48.427 66.987 111.36 66.987 180.267 0 153.173-124.16 277.333-277.333 277.333s-277.333-124.16-277.333-277.333 124.16-277.333 277.333-277.333c68.907 0 131.84 25.173 180.267 66.773l11.733-11.733v-33.707l213.333-212.907 63.573 63.573-212.907 213.333zM405.333 341.334c-106.027 0-192 85.973-192 192s85.973 192 192 192 192-85.973 192-192-85.973-192-192-192z" />
<glyph unicode="&#xe623;" glyph-name="star-outline" d="M938.667 544.427l-306.773 26.453-119.893 282.453-119.893-282.88-306.773-26.027 232.96-201.813-69.973-299.947 263.68 159.147 263.68-159.147-69.547 299.947 232.533 201.813zM512 281.6l-160.427-96.853 42.667 182.613-141.653 122.88 186.88 16.213 72.533 171.947 72.96-172.373 186.88-16.213-141.653-122.88 42.667-182.613-160.853 97.28z" />
<glyph unicode="&#xe624;" glyph-name="create" d="M128 202.667v-160h160l472.107 472.107-160 160-472.107-472.107zM883.413 638.080c16.64 16.64 16.64 43.733 0 60.373l-99.627 99.627c-16.64 16.64-43.733 16.64-60.373 0l-78.080-78.080 160-160 78.080 78.080z" />
<glyph unicode="&#xe625;" glyph-name="favorite-outline" d="M704 810.667c-74.24 0-145.493-34.56-192-88.96-46.507 54.4-117.76 88.96-192 88.96-131.627 0-234.667-103.040-234.667-234.667 0-161.067 145.067-292.693 364.8-492.16l61.867-56.107 61.867 56.107c219.733 199.467 364.8 331.093 364.8 492.16 0 131.627-103.040 234.667-234.667 234.667zM516.48 146.987l-4.48-4.053-4.48 4.053c-202.88 184.107-336.853 305.707-336.853 429.013 0 85.12 64.213 149.333 149.333 149.333 65.707 0 129.707-42.453 152.107-100.693h79.573c22.613 58.24 86.613 100.693 152.32 100.693 85.12 0 149.333-64.213 149.333-149.333 0-123.307-133.973-244.907-336.853-429.013z" />
<glyph unicode="&#xe626;" glyph-name="star-half" d="M938.667 523.094l-306.773 26.453-119.893 282.453-119.893-282.88-306.773-26.027 232.96-201.813-69.973-299.947 263.68 159.147 263.68-159.147-69.547 299.947 232.533 201.813zM512 260.267v396.8l72.96-172.373 186.88-16.213-141.653-122.88 42.667-182.613-160.853 97.28z" />
<glyph unicode="&#xe627;" glyph-name="star" d="M512 201.814l263.68-159.147-69.973 299.947 232.96 201.813-306.773 26.027-119.893 282.88-119.893-282.88-306.773-26.027 232.96-201.813-69.973-299.947z" />
<glyph unicode="&#xe628;" glyph-name="favorite" d="M512 27.734l-61.867 56.107c-219.733 199.467-364.8 331.093-364.8 492.16 0 131.627 103.040 234.667 234.667 234.667 74.24 0 145.493-34.56 192-88.96 46.507 54.4 117.76 88.96 192 88.96 131.627 0 234.667-103.040 234.667-234.667 0-161.067-145.067-292.693-364.8-492.16l-61.867-56.107z" />
<glyph unicode="&#xe629;" glyph-name="dots-three-vertical" d="M512.051 573.44c-62.208 0-112.691-50.432-112.691-112.64s50.483-112.64 112.691-112.64c62.208 0 112.589 50.432 112.589 112.64s-50.381 112.64-112.589 112.64zM512.051 706.56c62.208 0 112.589 50.483 112.589 112.64s-50.381 112.64-112.589 112.64c-62.208 0-112.691-50.432-112.691-112.64s50.483-112.64 112.691-112.64zM512.051 215.040c-62.208 0-112.691-50.432-112.691-112.64s50.483-112.64 112.691-112.64c62.208 0 112.589 50.432 112.589 112.64s-50.381 112.64-112.589 112.64z" />
<glyph unicode="&#xe62a;" glyph-name="select-arrows" d="M512 921.6l-256-358.4h512l-256 358.4zM512 0l256 358.4h-512l256-358.4z" />
<glyph unicode="&#xe62b;" glyph-name="grid" d="M409.6 768h-153.6c-28.314 0-51.2-22.886-51.2-51.2v-153.6c0-28.262 22.886-51.2 51.2-51.2h153.6c28.314 0 51.2 22.938 51.2 51.2v153.6c0 28.262-22.886 51.2-51.2 51.2zM768 768h-153.6c-28.314 0-51.2-22.886-51.2-51.2v-153.6c0-28.262 22.886-51.2 51.2-51.2h153.6c28.314 0 51.2 22.938 51.2 51.2v153.6c0 28.262-22.886 51.2-51.2 51.2zM409.6 409.6h-153.6c-28.314 0-51.2-22.886-51.2-51.2v-153.6c0-28.262 22.886-51.2 51.2-51.2h153.6c28.314 0 51.2 22.938 51.2 51.2v153.6c0 28.262-22.886 51.2-51.2 51.2zM768 409.6h-153.6c-28.314 0-51.2-22.886-51.2-51.2v-153.6c0-28.262 22.886-51.2 51.2-51.2h153.6c28.314 0 51.2 22.938 51.2 51.2v153.6c0 28.262-22.886 51.2-51.2 51.2z" />
<glyph unicode="&#xe62c;" glyph-name="logo_family_fun_gray" horiz-adv-x="4608" d="M2092.524 842.895c0 65.475-51.087 107.796-124.232 107.796-75.151 0-119.235-42.322-119.235-107.796 0-67.523 44.083-107.796 119.235-107.796 73.144 0 124.232 40.274 124.232 107.796zM4577.894 174.93v6.42c0.594 0 1.567 0.102 2.284 0.102 3.267 0 4.229-1.434 4.229-3.256 0-1.925-1.69-3.267-4.465-3.267h-2.048zM4571.156 186.276c0.113-1.556 0.236-5.786 0.236-7.844v-7.342c0-2.273-0.123-6.492-0.236-7.956h6.851c-0.113 0.84-0.113 2.058-0.113 3.502v3.502h2.284l4.966-7.363 7.332 0.481c-0.246 0.358-0.973 1.341-2.294 2.898-0.348 0.604-3.369 4.577-4.198 5.663 3.594 1.556 4.803 3.717 4.915 7.117 0 4.219-3.482 7.465-11.203 7.465-1.567 0-7.342-0.123-8.54-0.123v0zM4599.839 174.213c0-10.957-8.335-19.876-19.538-19.876-11.080 0-19.405 8.919-19.405 19.876 0 11.1 8.325 19.907 19.405 19.907 11.203 0 19.538-8.806 19.538-19.907v0zM4605.123 174.213c0 13.742-10.844 24.822-24.822 24.822-13.855 0-24.689-11.080-24.689-24.822 0-13.722 10.834-24.801 24.689-24.801 13.978 0 24.822 11.080 24.822 24.801v0zM2657.69 376.596l-86.17 295.199c-5.018 17.121-14.019 18.135-27.064 16.118l-158.3-24.177c-16.036-2.017-20.040-16.118-15.022-28.221l195.369-485.601c-24.044-43.315-68.127-52.378-104.202-52.378-20.040 0-36.055 1.004-52.091 4.024-17.050 3.011-18.043-4.024-16.036-17.142l19.036-122.9c1.997-12.083 8.008-13.107 19.026-14.1 21.053-2.017 40.090-4.045 58.122-4.045 132.25 0 210.412 58.44 263.526 207.544l179.323 502.733c5.018 15.124-2.007 28.221-18.022 28.221h-148.296c-14.029 0-22.026-3.021-26.051-16.138l-83.149-289.137zM511.529 526.715c52.101 20.142 105.206 29.215 156.303 29.215 53.094 0 68.127-16.118 68.127-55.419v-15.094c-221.42-12.104-301.599-62.464-301.599-193.444 0-102.758 63.119-157.174 146.299-157.174 67.133 0 117.238 30.239 164.332 78.592l8.008-48.353c1.997-12.104 8.008-19.139 21.043-19.139h139.264c13.025 0 19.036 8.038 19.036 21.135v326.441c0 147.077-71.137 204.503-229.437 204.503-57.119 0-152.31-16.108-216.443-34.243-14.029-4.024-18.033-11.080-16.026-24.177l16.026-98.744c2.007-12.083 12.022-19.139 25.068-14.1v0zM29.583 886.395c-13.025 0-20.040-8.059-20.040-20.163v-700.201c0-12.093 7.014-20.132 20.040-20.132h183.347c13.025 0 19.036 8.038 19.036 21.135v254.904h204.401c13.025 0 21.033 8.059 19.036 21.156l-22.047 145.080c-1.997 14.1-9.011 20.142-22.036 20.142h-179.354v93.696h275.548c13.036 0 21.043 8.059 19.046 21.146l-25.068 142.060c-2.007 13.117-7.014 21.176-20.040 21.176h-451.871zM735.959 395.735v-96.717c-23.040-19.139-43.080-27.187-64.113-27.187-25.057 0-43.1 14.1-43.1 46.326 0 44.339 26.061 65.495 107.213 77.578v0zM1873.162 166.031c0-12.093 7.025-20.132 20.040-20.132h158.3c13.036 0 19.046 8.038 19.046 21.135v494.684c0 13.097-7.014 20.152-20.040 20.152h-157.307c-13.015 0-20.040-7.055-20.040-20.152v-495.688zM2140.682 166.031c0-12.093 7.004-20.132 20.040-20.132h158.3c13.025 0 19.036 8.038 19.036 21.135v762.685c0 13.076-7.004 19.118-20.029 17.111l-157.307-24.177c-16.036-2.017-20.040-10.076-20.040-23.183v-733.44zM1304.064 469.279v-303.247c0-12.093 7.004-20.132 20.040-20.132h158.3c13.025 0 19.036 8.038 19.036 21.135v331.479c21.053 18.125 41.093 27.197 62.126 27.197 30.054 0 43.080-24.177 43.080-56.433v-303.247c0-12.093 7.014-20.132 20.050-20.132h158.3c13.025 0 19.026 8.038 19.026 21.135v358.676c0 109.804-54.098 172.268-155.3 172.268-65.126 0-114.207-32.246-163.318-83.62-20.029 46.356-60.109 83.62-132.25 83.62-68.137 0-113.224-31.222-161.311-83.62v65.495c0 13.097-7.014 18.125-20.040 16.118l-149.289-22.159c-16.026-2.017-20.040-10.076-20.040-23.173v-484.608c0-12.093 7.014-20.132 20.040-20.132h158.31c13.025 0 19.036 8.038 19.036 21.135v331.479c20.040 17.121 40.069 27.197 61.123 27.197 32.051 0 43.080-24.177 43.080-56.433v0zM2982.339 884.337c-12.984 0-19.999-7.997-19.999-19.999v-694.764c0-12.001 7.014-19.978 19.999-19.978h182.938c12.995 0 19.005 7.977 19.005 20.982v244.92h203.919c12.995 0 21.002 7.997 18.985 21.002l-21.975 143.933c-1.997 13.998-9.011 19.999-21.985 19.999h-178.944v100.966h274.893c12.995 0 20.992 7.997 18.995 20.992l-24.975 140.943c-2.017 13.005-7.014 21.002-19.999 21.002h-450.857zM3780.065 169.574c2.007-12.001 6.994-19.978 20.009-19.978h140.933c13.005 0 19.005 7.977 19.005 20.982l0.983 490.834c0 12.984-6.984 19.999-19.988 19.999h-157.942c-12.995 0-19.988-7.014-19.988-19.999v-323.901c-13.998-15.995-37.99-25.979-63.99-25.979-32.973 0-45.978 22.999-45.978 55.962v301.926c0 12.974-7.004 18.975-19.999 16.978l-156.928-19.005c-16.015-1.997-19.999-9.974-19.999-22.979v-340.879c0-109.978 47.974-164.936 147.958-164.936 64.952 0 117.944 34.98 166.932 84.961l8.991-53.985zM4028.979 650.414v-480.84c0-12.001 7.004-19.978 19.999-19.978h157.942c13.005 0 18.995 7.977 18.995 20.982v326.902c21.985 17.971 41.984 28.979 64.973 28.979 32.983 0 45.988-24.003 45.988-55.982v-300.902c0-12.001 6.994-19.978 20.009-19.978h157.932c12.995 0 18.985 7.977 18.985 20.982v355.881c0 108.954-53.975 170.936-154.952 170.936-63.969 0-110.95-22.999-160.932-72.98v53.975c0 13.005-6.994 19.005-19.988 17.009l-148.951-21.985c-15.985-2.017-19.999-9.994-19.999-22.999v0z" />
<glyph unicode="&#xe62d;" glyph-name="calendar" d="M870.4 819.2h-51.2v-102.4h-153.6v102.4h-307.2v-102.4h-153.6v102.4h-51.2c-56.371 0-102.4-46.080-102.4-102.4v-614.4c0-56.32 46.029-102.4 102.4-102.4h716.8c56.32 0 102.4 46.080 102.4 102.4v614.4c0 56.32-46.080 102.4-102.4 102.4zM870.4 102.4h-716.8v409.6h716.8v-409.6zM332.8 921.6h-102.4v-179.2h102.4v179.2zM793.6 921.6h-102.4v-179.2h102.4v179.2z" />
<glyph unicode="&#xe62e;" glyph-name="thumbs-down" d="M325.222 325.734c6.81-18.227-181.197-186.061-71.526-322.099 25.651-31.795 112.691 152.32 236.288 235.622 68.147 46.029 226.816 143.923 226.816 198.042v350.31c0 65.075-251.597 133.99-442.778 133.99-70.093 0-171.622-439.091-171.622-508.877 0-69.99 216.115-68.762 222.822-86.989zM768 330.598c33.69 0 153.6 20.48 153.6 159.898v248.218c0 139.315-119.91 154.675-153.6 154.675-33.638 0 51.2-29.286 51.2-115.712v-326.298c0-90.522-84.838-120.781-51.2-120.781z" />
<glyph unicode="&#xe62f;" glyph-name="thumbs-up" d="M698.778 595.866c-6.81 18.176 181.197 186.061 71.578 322.099-25.651 31.795-112.691-152.32-236.288-235.674-68.198-45.978-226.867-143.872-226.867-197.99v-350.31c0-65.075 251.597-133.99 442.778-133.99 70.093 0 171.622 439.091 171.622 508.826 0 70.042-216.115 68.813-222.822 87.040zM256 591.002c-33.69 0-153.6-20.48-153.6-159.898v-248.218c0-139.315 119.91-154.675 153.6-154.675 33.638 0-51.2 29.286-51.2 115.712v326.298c0 90.522 84.838 120.781 51.2 120.781z" />
<glyph unicode="&#xe630;" glyph-name="export" d="M768 204.8h-665.6v460.8h132.864c0 0 35.277 45.875 111.104 102.4h-295.168c-28.314 0-51.2-22.989-51.2-51.2v-563.2c0-28.314 22.886-51.2 51.2-51.2h768c28.314 0 51.2 22.886 51.2 51.2v191.795l-102.4-84.224v-56.371zM684.083 560.64v-181.811l339.917 266.291-339.917 255.949v-160.307c-412.723 0-412.723-407.962-412.723-407.962 116.838 191.898 188.723 227.84 412.723 227.84z" />
<glyph unicode="&#xe631;" glyph-name="facebook" d="M672 768c-88.366 0-160-71.634-160-160v-96h-128v-128h128v-448h128v448h144l32 128h-176v96c0 17.672 14.326 32 32 32h160v128h-160z" />
<glyph unicode="&#xe632;" glyph-name="yahoo" d="M848 320l-14.858 416.020c-0.628 17.59 13.258 31.98 30.858 31.98h128c17.6 0 29.468-14.176 26.376-31.502l-74.376-416.498zM960 184c0-30.8-25.2-56-56-56h-16c-30.8 0-56 25.2-56 56v16c0 30.8 25.2 56 56 56h16c30.8 0 56-25.2 56-56v-16zM384 768c-212.078 0-384-143.268-384-320 0-176.73 171.922-320 384-320s384 143.27 384 320c0 176.732-171.922 320-384 320zM640 512h-74.262l-117.738-117.74v-74.26h96v-64h-256v64h96v74.26l-181.74 181.74h-42.062v64h191.606v-64h-42.064l106.26-106.26 32 32v74.26h192v-64z" />
<glyph unicode="&#xe633;" glyph-name="tumblr" d="M576.032 512l-0.002-234.184c0-59.418-0.77-93.656 5.53-110.5 6.25-16.754 21.918-34.146 38.99-44.202 22.684-13.588 48.542-20.376 77.708-20.376 51.854 0 82.478 6.848 133.742 40.54v-153.944c-43.7-20.552-81.866-32.594-117.324-40.922-35.5-8.242-73.86-12.406-115.064-12.406-46.828 0-74.456 5.886-110.41 17.656-35.958 11.868-66.66 28.806-92.020 50.54-25.45 21.922-43.022 45.208-52.848 69.832-9.826 24.636-14.716 60.414-14.716 107.244v359.1h-137.426v145.006c40.208 13.042 85.164 31.788 113.78 56.152 28.754 24.45 51.766 53.706 69.106 87.944 17.392 34.146 29.348 77.712 35.872 130.516h165.084l-0.002-255.996h255.968v-192h-255.968z" />
<glyph unicode="&#xe634;" glyph-name="youtube" d="M293.188 960l-69.188-137.234-69.188 137.234h-88.248l124.71-217.314 0.726 0.43v-167.116h64v167.116l0.726-0.43 124.71 217.314zM480 832c17.346 0 32-14.654 32-32v-128c0-17.346-14.654-32-32-32s-32 14.654-32 32v128c0 17.346 14.654 32 32 32zM480 896c-52.8 0-96-43.2-96-96v-128c0-52.8 43.2-96 96-96s96 43.2 96 96v128c0 52.8-43.2 96-96 96v0zM768 896v-251.968c-27.922-23.288-64-37.332-64 45.634v206.334h-64v-219.324h0.096c0.986-52.91 12.142-148.168 127.904-70.712v-29.964h64v320h-64zM864 256c-17.644 0-32-14.356-32-32v-32h64v32c0 17.644-14.356 32-32 32zM576 224v-168c21.666-21.666 64-24 64 8s0 118 0 150-32 42-64 10zM1018.766 378.46c-2.792 36.862-16.046 66.942-39.778 90.244-23.726 23.298-54.080 35.994-91.068 38.080-69.784 3.478-229.452 5.216-369.716 5.216-140.266 0-311.294-1.738-381.078-5.216-36.986-2.086-67.342-14.782-91.068-38.080-23.728-23.302-36.988-53.382-39.778-90.244-4.188-75.116-6.28-102.352-6.28-139.91 0-37.56 2.092-93.894 6.28-169.012 2.792-36.862 16.050-66.944 39.778-90.244 23.726-23.298 54.082-35.992 91.068-38.080 69.782-3.476 240.81-5.214 381.078-5.214 140.266 0 299.934 1.738 369.716 5.214 36.988 2.088 67.342 14.782 91.068 38.080 23.73 23.3 36.986 53.382 39.778 90.244 3.49 62.598 5.234 118.934 5.234 169.012 0 50.076-1.744 77.314-5.234 139.91zM192 0h-64v320h-64v64h192v-64h-64v-320zM448 0h-64v29.962c-121.666-68.294-126.918-2.198-127.904 50.712h-0.096v175.326h64v-176.334c0-38.666 36.078-34.924 64-11.634v187.968h64v-256zM704 64.914c0-66.892-68.504-86.402-128-34.39v-30.524h-64v384h64v-104c64 64 128 40 128-24s0-121.172 0-191.086zM960 192v-32h-128v-64c0-17.644 14.356-32 32-32s32 14.356 32 32v32h64v-32c0-52.934-43.066-96-96-96s-96 43.066-96 96v128c0 52.934 43.066 96 96 96s96-43.066 96-96v-32z" />
<glyph unicode="&#xe635;" glyph-name="feed" d="M136.294 209.070c-75.196 0-136.292-61.334-136.292-136.076 0-75.154 61.1-135.802 136.292-135.802 75.466 0 136.494 60.648 136.494 135.802-0.002 74.742-61.024 136.076-136.494 136.076zM0.156 612.070v-196.258c127.784 0 247.958-49.972 338.458-140.512 90.384-90.318 140.282-211.036 140.282-339.3h197.122c-0.002 372.82-303.282 676.070-675.862 676.070zM0.388 960v-196.356c455.782 0 826.756-371.334 826.756-827.644h196.856c0 564.47-459.254 1024-1023.612 1024z" />
<glyph unicode="&#xe636;" glyph-name="twitter" d="M1024 765.582c-37.676-16.708-78.164-28.002-120.66-33.080 43.372 26 76.686 67.17 92.372 116.23-40.596-24.078-85.556-41.56-133.41-50.98-38.32 40.83-92.922 66.34-153.346 66.34-116.022 0-210.088-94.058-210.088-210.078 0-16.466 1.858-32.5 5.44-47.878-174.6 8.764-329.402 92.4-433.018 219.506-18.084-31.028-28.446-67.116-28.446-105.618 0-72.888 37.088-137.192 93.46-174.866-34.438 1.092-66.832 10.542-95.154 26.278-0.020-0.876-0.020-1.756-0.020-2.642 0-101.788 72.418-186.696 168.522-206-17.626-4.8-36.188-7.372-55.348-7.372-13.538 0-26.698 1.32-39.528 3.772 26.736-83.46 104.32-144.206 196.252-145.896-71.9-56.35-162.486-89.934-260.916-89.934-16.958 0-33.68 0.994-50.116 2.94 92.972-59.61 203.402-94.394 322.042-94.394 386.422 0 597.736 320.124 597.736 597.744 0 9.108-0.206 18.168-0.61 27.18 41.056 29.62 76.672 66.62 104.836 108.748z" />
<glyph unicode="&#xe637;" glyph-name="instagram" d="M854 960h-684c-93.5 0-170-76.5-170-170v-684c0-93.5 76.5-170 170-170h684c93.5 0 170 76.5 170 170v684c0 93.5-76.5 170-170 170zM327.8 512h368.4c6.988-20.058 10.8-41.59 10.8-64 0-107.524-87.476-195-195-195s-195 87.476-195 195c0 22.41 3.812 43.942 10.8 64zM896 511.95v-383.95c0-35.2-28.8-64-64-64h-640c-35.2 0-64 28.8-64 64v384h100.108c-4.642-20.602-7.108-42.016-7.108-64 0-160.458 130.542-291 291-291s291 130.542 291 291c0 21.984-2.464 43.398-7.108 64l100.108-0.050zM896 736c0-17.6-14.4-32-32-32h-64c-17.6 0-32 14.4-32 32v64c0 17.6 14.4 32 32 32h64c17.6 0 32-14.4 32-32v-64z" />
<glyph unicode="&#xe638;" glyph-name="google-plus" d="M559.066 896c0 0-200.956 0-267.94 0-120.12 0-233.17-91.006-233.17-196.422 0-107.726 81.882-194.666 204.088-194.666 8.498 0 16.756 0.17 24.842 0.752-7.93-15.186-13.602-32.288-13.602-50.042 0-29.938 16.104-54.21 36.468-74.024-15.386 0-30.242-0.448-46.452-0.448-148.782 0.002-263.3-94.758-263.3-193.020 0-96.778 125.542-157.314 274.334-157.314 169.624 0 263.306 96.244 263.306 193.028 0 77.6-22.896 124.072-93.686 174.134-24.216 17.144-70.53 58.836-70.53 83.344 0 28.72 8.196 42.868 51.428 76.646 44.312 34.624 75.672 83.302 75.672 139.916 0 67.406-30.020 133.098-86.372 154.772h84.954l59.96 43.344zM465.48 240.542c2.126-8.972 3.284-18.206 3.284-27.628 0-78.2-50.392-139.31-194.974-139.31-102.842 0-177.116 65.104-177.116 143.3 0 76.642 92.126 140.444 194.964 139.332 24-0.254 46.368-4.116 66.67-10.69 55.826-38.826 95.876-60.762 107.172-105.004zM300.818 532.224c-69.038 2.064-134.636 77.226-146.552 167.86-11.916 90.666 34.37 160.042 103.388 157.99 69.010-2.074 134.638-74.814 146.558-165.458 11.906-90.66-34.39-162.458-103.394-160.392zM832 704v192h-64v-192h-192v-64h192v-192h64v192h192v64z" />
<glyph unicode="&#xe639;" glyph-name="p_icon" horiz-adv-x="832" d="M594.477 649.050c0 163.168-19.84 213.376-159.322 213.376h-76.704v-431.808c15.789-2.63 8.282-5.254 29.338-5.254 152.64-0.006 206.688 73.677 206.688 223.686zM456.211 388.704c-57.901-1.318-60.922 0-97.76 2.63v-350.605h107.341v-49.613h-411.866v49.613h104.512v808.723h-104.512v55.43h433.869c223.693 0 287.27-96.314 290.227-248.218 2.854-146.342-110.381-269.389-321.811-267.962z" />
<glyph unicode="&#xe63a;" glyph-name="logo_family_circle_gray" horiz-adv-x="3959" d="M1570.898 776.125c43.083 0 78.016 39.559 78.016 88.357s-34.933 88.357-78.016 88.357c-43.097 0-78.016-39.559-78.016-88.357s34.919-88.357 78.016-88.357zM1506.833 754.126h128.689v-593.933h-128.689v593.933zM2602.489 871.887c-39.889 37.697-86.28 56.331-143.943 56.331-99.944-0.014-184.777-65.068-236.181-174.092h-132.485l-99.185-325.411-100.244 325.411h-100.803v138.486h-128.432v-732.419h128.432v472.763l137.655-388.288-92.41-294.417h132.227l217.576 666.764c-7.233-45.632-9.052-64.867-9.052-95.532 0-215.599 119.752-381.786 282.214-381.786 57.792 0 112.662 20.181 144.63 52.049v180.939l-8.135-10.255c-34.933-37.339-74.406-51.49-120.296-51.49-92.782 0-151.434 89.288-151.434 218.349 0 133.86 58.666 225.453 152.451 225.41 51.118-0.029 97.738-23.933 127.415-63.722v180.91zM810.922 754.126v-593.933h128.432v346.466c0 72.573 25.795 109.268 70.983 109.225 47.422-0.043 71.27-36.609 71.27-109.225v-346.466h128.417v346.466c0 72.458 28.946 109.225 71.456 109.225 42.653 0 70.811-35.893 70.811-109.225v-346.466h129.778v416.432c0 119.222-57.090 195.433-146.435 195.433-60.757 0-109.569-34.489-139.689-98.712-19.407 60.299-67.703 98.755-123.977 98.755-57.448 0-105.229-33.902-136.395-96.764v78.789h-124.65zM2782.812 754.126v-593.933h128.446v320.012c0 72.559 29.72 110.843 86.051 110.843 10.943 0 17.345-1.303 26.11-5.328-15.755-42.409-22.501-93.943-22.501-146.091 0-172.689 93.069-297.411 214.253-297.411 42.811 0 76.297 9.568 109.712 36.093v150.56c-29.906-25.924-54.383-35.506-85.721-35.506-71.255 0-108.953 62.189-108.953 153.124 0 99.829 39.889 165.155 117.704 165.155 30.479 0 53.925-8.594 76.97-29.906v154.456c-31.252 26.526-60.814 35.864-102.049 35.864-86.953 0-153.138-62.361-187.212-153.625l-0.286 141.379c-9.424 2.807-13.206 3.409-21.341 3.409-55.529 0-97.294-45.503-110.886-113.937l-0.258 104.842h-120.038zM3350.635 892.612h128.689v-732.419h-128.689v732.419zM3639.61 540.216c10.9 63.936 40.676 98.153 85.449 98.153 43.756 0 70.826-33.558 79.133-98.153h-164.582zM3831.963 382.91c-21.957-57.334-59.138-89.202-104.083-89.202-56.56 0-95.804 49.599-97.623 123.333h306.319c0.602 17.717 0.759 24.735 0.759 35.792 0 199.286-80.107 319.224-213.222 319.224-130.322 0-220.397-129.563-220.397-316.975 0-181.898 91.723-312.836 219.137-312.836 85.32 0 169.667 65.412 202.952 157.32l-93.842 83.344zM323.249 906.877v-159.583h-184.247v-135.965h159.469v-108.151c12.432 164.568 105.53 268.865 214.353 268.865 62.519 0 113.98-32.613 141.795-89.875l0.544 71.957h130.064v-593.933h-135.75l0.272 49.786c-24.563-40.39-73.375-67.718-139.403-67.718-98.511 0-212.334 111.459-212.019 298.685h-159.326v-280.753h-139.002v746.685h323.249zM541.698 614.222c-64.552 0-110.614-67.646-110.614-162.405 0-90.376 46.205-155.988 109.855-155.988 63.722 0 109.912 68.119 109.912 162.118 0 91.608-45.174 156.275-109.153 156.275v0zM2696.804 776.125c43.083 0 78.016 39.559 78.016 88.357s-34.933 88.357-78.016 88.357c-43.083 0-78.001-39.559-78.001-88.357s34.919-88.357 78.001-88.357zM2628.414 754.126h128.704v-593.933h-128.704v593.933zM3887.888 182.636c13.675 0 24.569-11.124 24.569-25.012 0-14.1-10.894-25.118-24.675-25.118-13.657 0-24.781 11.018-24.781 25.118 0 13.887 11.124 25.012 24.781 25.012h0.106zM3887.782 178.739c-11 0-20.016-9.441-20.016-21.115 0-11.886 9.016-21.221 20.123-21.221 11.106-0.124 20.016 9.335 20.016 21.115s-8.91 21.221-20.016 21.221h-0.106zM3883.123 143.064h-4.446v27.899c2.338 0.337 4.535 0.673 7.883 0.673 4.216 0 6.997-0.903 8.662-2.126 1.665-1.205 2.568-3.1 2.568-5.775 0-3.667-2.462-5.899-5.438-6.784v-0.213c2.444-0.461 4.11-2.675 4.641-6.784 0.673-4.34 1.346-6.005 1.789-6.891h-4.659c-0.673 0.886-1.329 3.454-1.895 7.103-0.673 3.56-2.427 4.907-6.005 4.907h-3.1v-12.010zM3883.123 158.51h3.206c3.684 0 6.784 1.346 6.784 4.783 0 2.444-1.789 4.889-6.784 4.889-1.435 0-2.444-0.124-3.206-0.23v-9.441z" />
<glyph unicode="&#xe900;" glyph-name="logo_fpg" horiz-adv-x="6223" d="M1513.055 625.659v110.136c0 123.247-72.113 203.227-209.782 203.227h-296.318v-818.151h175.693v302.873h120.625c137.67 0 209.782 79.98 209.782 201.915zM1345.229 623.037c0-44.579-17.045-68.179-62.935-68.179h-99.647v246.494h99.647c45.89 0 62.935-24.912 62.935-68.179v-110.136zM2107.001 115.626v51.134c-22.289 19.667-34.090 45.89-34.090 83.913v133.736c0 56.379-35.401 118.003-108.825 135.047 73.424 19.667 106.202 69.49 106.202 136.359v87.846c0 118.003-79.98 194.049-212.405 194.049h-295.006v-818.151h175.693v335.652h94.402c49.823 0 72.113-36.712 72.113-79.98v-133.736c0-76.046 27.534-125.869 98.335-125.869h103.58zM1898.53 649.26c0-48.512-24.912-72.113-69.49-72.113h-91.78v224.205h99.647c45.89 0 62.935-26.223 62.935-66.868v-85.224zM2620.968 120.871v153.403h-280.584v205.849h192.738v132.425h-192.738v179.626h280.584v146.848h-456.277v-818.151h456.277zM3203.114 120.871v419.565h-263.539v-120.625h95.713v-85.224c0-44.579-31.467-87.846-97.024-87.846-62.935 0-95.713 43.268-95.713 87.846v389.408c0 45.89 30.156 87.846 94.402 87.846 65.557 0 91.78-39.334 91.78-85.224v-66.868h169.137v61.624c0 127.181-87.846 237.316-263.539 237.316-174.382 0-271.406-115.38-271.406-237.316v-382.853c0-127.181 82.602-238.627 245.183-238.627 77.357 0 144.225 34.090 175.693 95.713l22.289-74.735h97.024zM3824.594 120.871v818.151h-158.648v-469.388l-66.868 133.736-174.382 335.652h-146.848v-818.151h161.27v461.521l69.49-133.736 180.937-327.785h135.047zM4443.452 120.871l-190.115 818.151h-196.671l-192.738-818.151h165.204l34.090 162.581h169.137l34.090-162.581h177.004zM4210.069 413.255h-120.625l62.935 298.94 57.69-298.94zM5036.087 120.871v818.151h-158.648v-469.388l-66.868 133.736-175.693 335.652h-146.848v-818.151h161.27v461.521l69.49-133.736 180.937-327.785h136.359zM5635.278 338.52v79.98h-157.337v-76.046c0-56.379-32.778-93.091-98.335-93.091s-98.335 38.023-98.335 89.157v381.542c0 52.446 32.778 90.469 98.335 90.469s98.335-36.712 98.335-93.091v-76.046h157.337v79.98c0 136.359-87.846 238.627-258.295 238.627-173.070 0-274.028-111.447-274.028-253.050v-354.008c0-141.603 100.958-253.050 274.028-253.050 170.448 0 258.295 102.269 258.295 238.627zM6222.669 939.022h-175.693l-118.003-322.54-124.558 322.54h-184.871l211.093-479.877v-339.585h175.693v340.896l216.338 478.566zM322.54 591.57v116.691h-98.335v47.201c0 48.512 15.734 77.357 76.046 77.357h24.912v111.447h-51.134c-135.047 0-196.671-79.98-196.671-204.538v-31.467h-77.357v-116.691h78.668v-474.633h150.781v474.633h93.091zM537.567 929.844h-148.159v-133.736h148.159v133.736zM540.19 713.506h-152.092v-595.257h152.092v595.257zM916.487 595.503v118.003h-94.402v144.225l-145.536-35.401v-108.825h-83.913v-118.003h78.668v-287.14c0-87.846 7.867-141.603 32.778-191.426h158.648c-31.467 55.068-39.334 114.069-39.334 191.426v287.14h93.091zM4880.062-64l-69.49 182.248h-48.512l-68.179-182.248h44.579l13.111 36.712h64.246l13.111-36.712h51.134zM4806.638 4.179h-43.268l22.289 62.935 20.978-62.935zM5067.555-64v180.937h-44.579v-108.825l-13.111 18.356-66.868 90.469h-41.956v-182.248h44.579v107.513l14.423-18.356 68.179-89.157h39.334zM5266.848 6.802v39.334c0 39.334-27.534 72.113-83.913 72.113h-82.602v-182.248h82.602c56.379 0 83.913 30.156 83.913 70.802zM5218.336 6.802c0-22.289-14.423-35.401-39.334-35.401h-32.778v110.136h32.778c24.912 0 39.334-13.111 39.334-35.401v-39.334zM5534.32-16.799v5.245c0 17.045-10.489 34.090-35.401 38.023 22.289 3.933 32.778 20.978 32.778 39.334v2.622c0 30.156-20.978 47.201-59.001 47.201h-95.713v-182.248h97.024c38.023 2.622 60.312 19.667 60.312 49.823zM5485.808 57.936c0-11.8-6.556-19.667-22.289-19.667h-38.023v43.268h39.334c15.734 0 20.978-7.867 20.978-18.356v-5.245zM5485.808-11.554c0-10.489-5.245-18.356-20.978-18.356h-39.334v43.268h38.023c15.734 0 22.289-6.556 22.289-19.667v-5.245zM5728.369-64l-69.49 182.248h-48.512l-68.179-182.248h44.579l13.111 36.712h64.246l13.111-36.712h51.134zM5654.945 4.179h-43.268l22.289 62.935 20.978-62.935zM5906.684-16.799v5.245c0 17.045-10.489 34.090-35.401 38.023 22.289 3.933 32.778 20.978 32.778 39.334v2.622c0 30.156-20.978 47.201-59.001 47.201h-95.713v-182.248h97.024c39.334 2.622 60.312 19.667 60.312 49.823zM5858.172 57.936c0-11.8-6.556-19.667-22.289-19.667h-38.023v43.268h39.334c15.734 0 20.978-7.867 20.978-18.356v-5.245zM5858.172-11.554c0-10.489-5.245-18.356-20.978-18.356h-39.334v43.268h38.023c15.734 0 22.289-6.556 22.289-19.667v-5.245zM6099.421 116.937h-51.134l-40.645-73.424-43.268 73.424h-52.446l69.49-108.825v-73.424h48.512v73.424l69.49 108.825z" />
</font>
</defs>
</svg>
